<mxfile host="app.diagrams.net" agent="Mozilla/5.0 (Windows NT 10.0; Win64; x64) AppleWebKit/537.36 (KHTML, like Gecko) Chrome/140.0.0.0 Safari/537.36" version="28.2.0">
  <diagram name="Página-1" id="M6O3rL5K1ghyOJCvUYzP">
    <mxGraphModel dx="1188" dy="659" grid="1" gridSize="10" guides="1" tooltips="1" connect="1" arrows="1" fold="1" page="1" pageScale="1" pageWidth="827" pageHeight="1169" math="0" shadow="0">
      <root>
        <mxCell id="0" />
        <mxCell id="1" parent="0" />
        <mxCell id="ogNk2Wb2_UPgN5I3dc7u-1" value="Cliente" style="swimlane;whiteSpace=wrap;html=1;" vertex="1" parent="1">
          <mxGeometry x="70" y="90" width="200" height="1030" as="geometry" />
        </mxCell>
        <mxCell id="ogNk2Wb2_UPgN5I3dc7u-5" value="Ir a Checkout" style="rounded=1;whiteSpace=wrap;html=1;" vertex="1" parent="ogNk2Wb2_UPgN5I3dc7u-1">
          <mxGeometry x="30" y="80" width="140" height="30" as="geometry" />
        </mxCell>
        <mxCell id="ogNk2Wb2_UPgN5I3dc7u-15" value="Mostrar faltantes / volver al carrito" style="rounded=1;whiteSpace=wrap;html=1;" vertex="1" parent="ogNk2Wb2_UPgN5I3dc7u-1">
          <mxGeometry x="40" y="205" width="120" height="60" as="geometry" />
        </mxCell>
        <mxCell id="ogNk2Wb2_UPgN5I3dc7u-33" value="Pagar con Webpay (tarjeta/cuota&lt;span style=&quot;background-color: transparent; color: light-dark(rgb(0, 0, 0), rgb(255, 255, 255));&quot;&gt;)&lt;/span&gt;" style="rounded=1;whiteSpace=wrap;html=1;" vertex="1" parent="ogNk2Wb2_UPgN5I3dc7u-1">
          <mxGeometry x="20" y="540" width="120" height="60" as="geometry" />
        </mxCell>
        <mxCell id="ogNk2Wb2_UPgN5I3dc7u-51" style="edgeStyle=orthogonalEdgeStyle;rounded=0;orthogonalLoop=1;jettySize=auto;html=1;" edge="1" parent="ogNk2Wb2_UPgN5I3dc7u-1" source="ogNk2Wb2_UPgN5I3dc7u-49" target="ogNk2Wb2_UPgN5I3dc7u-5">
          <mxGeometry relative="1" as="geometry" />
        </mxCell>
        <mxCell id="ogNk2Wb2_UPgN5I3dc7u-49" value="" style="ellipse;whiteSpace=wrap;html=1;aspect=fixed;" vertex="1" parent="ogNk2Wb2_UPgN5I3dc7u-1">
          <mxGeometry x="90" y="30" width="20" height="20" as="geometry" />
        </mxCell>
        <mxCell id="ogNk2Wb2_UPgN5I3dc7u-52" value="" style="ellipse;whiteSpace=wrap;html=1;aspect=fixed;strokeColor=#36393d;fillColor=light-dark(#F9F7ED,#FFFFFF);" vertex="1" parent="ogNk2Wb2_UPgN5I3dc7u-1">
          <mxGeometry x="68.75" y="827.5" width="30" height="30" as="geometry" />
        </mxCell>
        <mxCell id="ogNk2Wb2_UPgN5I3dc7u-53" value="" style="ellipse;whiteSpace=wrap;html=1;aspect=fixed;" vertex="1" parent="ogNk2Wb2_UPgN5I3dc7u-1">
          <mxGeometry x="72.5" y="831.25" width="22.5" height="22.5" as="geometry" />
        </mxCell>
        <mxCell id="ogNk2Wb2_UPgN5I3dc7u-83" style="edgeStyle=orthogonalEdgeStyle;rounded=0;orthogonalLoop=1;jettySize=auto;html=1;entryX=0.5;entryY=0;entryDx=0;entryDy=0;" edge="1" parent="ogNk2Wb2_UPgN5I3dc7u-1" source="ogNk2Wb2_UPgN5I3dc7u-80" target="ogNk2Wb2_UPgN5I3dc7u-53">
          <mxGeometry relative="1" as="geometry" />
        </mxCell>
        <mxCell id="ogNk2Wb2_UPgN5I3dc7u-84" value="no" style="edgeLabel;html=1;align=center;verticalAlign=middle;resizable=0;points=[];" vertex="1" connectable="0" parent="ogNk2Wb2_UPgN5I3dc7u-83">
          <mxGeometry x="-0.0423" y="-2" relative="1" as="geometry">
            <mxPoint as="offset" />
          </mxGeometry>
        </mxCell>
        <mxCell id="ogNk2Wb2_UPgN5I3dc7u-80" value="¿Reintentar?" style="rhombus;whiteSpace=wrap;html=1;" vertex="1" parent="ogNk2Wb2_UPgN5I3dc7u-1">
          <mxGeometry x="25.75" y="670" width="116" height="60" as="geometry" />
        </mxCell>
        <mxCell id="ogNk2Wb2_UPgN5I3dc7u-2" value="Sitio Web&amp;nbsp;" style="swimlane;whiteSpace=wrap;html=1;" vertex="1" parent="1">
          <mxGeometry x="270" y="90" width="200" height="1030" as="geometry" />
        </mxCell>
        <mxCell id="ogNk2Wb2_UPgN5I3dc7u-19" style="edgeStyle=orthogonalEdgeStyle;rounded=0;orthogonalLoop=1;jettySize=auto;html=1;" edge="1" parent="ogNk2Wb2_UPgN5I3dc7u-2" source="ogNk2Wb2_UPgN5I3dc7u-7" target="ogNk2Wb2_UPgN5I3dc7u-11">
          <mxGeometry relative="1" as="geometry" />
        </mxCell>
        <mxCell id="ogNk2Wb2_UPgN5I3dc7u-7" value="Validar sesión" style="whiteSpace=wrap;html=1;rounded=1;" vertex="1" parent="ogNk2Wb2_UPgN5I3dc7u-2">
          <mxGeometry x="45" y="80" width="110" height="28.75" as="geometry" />
        </mxCell>
        <mxCell id="ogNk2Wb2_UPgN5I3dc7u-20" style="edgeStyle=orthogonalEdgeStyle;rounded=0;orthogonalLoop=1;jettySize=auto;html=1;entryX=0.5;entryY=0;entryDx=0;entryDy=0;" edge="1" parent="ogNk2Wb2_UPgN5I3dc7u-2" source="ogNk2Wb2_UPgN5I3dc7u-11" target="ogNk2Wb2_UPgN5I3dc7u-14">
          <mxGeometry relative="1" as="geometry" />
        </mxCell>
        <mxCell id="ogNk2Wb2_UPgN5I3dc7u-11" value="Validar Stock de cada ítem&amp;nbsp;" style="whiteSpace=wrap;html=1;rounded=1;" vertex="1" parent="ogNk2Wb2_UPgN5I3dc7u-2">
          <mxGeometry x="32.5" y="130" width="135" height="40" as="geometry" />
        </mxCell>
        <mxCell id="ogNk2Wb2_UPgN5I3dc7u-14" value="¿Stock suficiente?" style="rhombus;whiteSpace=wrap;html=1;" vertex="1" parent="ogNk2Wb2_UPgN5I3dc7u-2">
          <mxGeometry x="31.25" y="200" width="137.5" height="70" as="geometry" />
        </mxCell>
        <mxCell id="ogNk2Wb2_UPgN5I3dc7u-23" value="" style="edgeStyle=orthogonalEdgeStyle;rounded=0;orthogonalLoop=1;jettySize=auto;html=1;" edge="1" parent="ogNk2Wb2_UPgN5I3dc7u-2" source="ogNk2Wb2_UPgN5I3dc7u-17" target="ogNk2Wb2_UPgN5I3dc7u-22">
          <mxGeometry relative="1" as="geometry" />
        </mxCell>
        <mxCell id="ogNk2Wb2_UPgN5I3dc7u-17" value="Elegir envió / retiro y dirección" style="whiteSpace=wrap;html=1;rounded=1;" vertex="1" parent="ogNk2Wb2_UPgN5I3dc7u-2">
          <mxGeometry x="32.5" y="290" width="135" height="40" as="geometry" />
        </mxCell>
        <mxCell id="ogNk2Wb2_UPgN5I3dc7u-26" value="" style="edgeStyle=orthogonalEdgeStyle;rounded=0;orthogonalLoop=1;jettySize=auto;html=1;" edge="1" parent="ogNk2Wb2_UPgN5I3dc7u-2" source="ogNk2Wb2_UPgN5I3dc7u-22" target="ogNk2Wb2_UPgN5I3dc7u-25">
          <mxGeometry relative="1" as="geometry" />
        </mxCell>
        <mxCell id="ogNk2Wb2_UPgN5I3dc7u-22" value="Calcular Costo y totales" style="whiteSpace=wrap;html=1;rounded=1;" vertex="1" parent="ogNk2Wb2_UPgN5I3dc7u-2">
          <mxGeometry x="40" y="360" width="120" height="30" as="geometry" />
        </mxCell>
        <mxCell id="ogNk2Wb2_UPgN5I3dc7u-28" value="" style="edgeStyle=orthogonalEdgeStyle;rounded=0;orthogonalLoop=1;jettySize=auto;html=1;" edge="1" parent="ogNk2Wb2_UPgN5I3dc7u-2" source="ogNk2Wb2_UPgN5I3dc7u-25" target="ogNk2Wb2_UPgN5I3dc7u-27">
          <mxGeometry relative="1" as="geometry" />
        </mxCell>
        <mxCell id="ogNk2Wb2_UPgN5I3dc7u-25" value="Crear Orden= &#39;pendiente de pago&lt;span style=&quot;background-color: transparent; color: light-dark(rgb(0, 0, 0), rgb(255, 255, 255));&quot;&gt;&#39;&lt;/span&gt;" style="whiteSpace=wrap;html=1;rounded=1;" vertex="1" parent="ogNk2Wb2_UPgN5I3dc7u-2">
          <mxGeometry x="40" y="410" width="120" height="40" as="geometry" />
        </mxCell>
        <mxCell id="ogNk2Wb2_UPgN5I3dc7u-27" value="iniciar pago (Crear transacción)" style="whiteSpace=wrap;html=1;rounded=1;" vertex="1" parent="ogNk2Wb2_UPgN5I3dc7u-2">
          <mxGeometry x="40" y="480" width="120" height="30" as="geometry" />
        </mxCell>
        <mxCell id="ogNk2Wb2_UPgN5I3dc7u-58" style="edgeStyle=orthogonalEdgeStyle;rounded=0;orthogonalLoop=1;jettySize=auto;html=1;entryX=0.5;entryY=1;entryDx=0;entryDy=0;exitX=0.5;exitY=0;exitDx=0;exitDy=0;" edge="1" parent="ogNk2Wb2_UPgN5I3dc7u-2" source="ogNk2Wb2_UPgN5I3dc7u-44" target="ogNk2Wb2_UPgN5I3dc7u-27">
          <mxGeometry relative="1" as="geometry">
            <Array as="points">
              <mxPoint x="101" y="680" />
            </Array>
          </mxGeometry>
        </mxCell>
        <mxCell id="ogNk2Wb2_UPgN5I3dc7u-76" value="no" style="edgeLabel;html=1;align=center;verticalAlign=middle;resizable=0;points=[];" vertex="1" connectable="0" parent="ogNk2Wb2_UPgN5I3dc7u-58">
          <mxGeometry x="-0.5238" relative="1" as="geometry">
            <mxPoint as="offset" />
          </mxGeometry>
        </mxCell>
        <mxCell id="ogNk2Wb2_UPgN5I3dc7u-44" value="¿Callback válido?" style="rhombus;whiteSpace=wrap;html=1;" vertex="1" parent="ogNk2Wb2_UPgN5I3dc7u-2">
          <mxGeometry x="32.5" y="720" width="137.5" height="70" as="geometry" />
        </mxCell>
        <mxCell id="ogNk2Wb2_UPgN5I3dc7u-71" value="" style="edgeStyle=orthogonalEdgeStyle;rounded=0;orthogonalLoop=1;jettySize=auto;html=1;entryX=0.5;entryY=0;entryDx=0;entryDy=0;" edge="1" parent="ogNk2Wb2_UPgN5I3dc7u-2" source="ogNk2Wb2_UPgN5I3dc7u-62" target="ogNk2Wb2_UPgN5I3dc7u-87">
          <mxGeometry relative="1" as="geometry" />
        </mxCell>
        <mxCell id="ogNk2Wb2_UPgN5I3dc7u-62" value="Marcar orden pagada" style="rounded=1;whiteSpace=wrap;html=1;" vertex="1" parent="ogNk2Wb2_UPgN5I3dc7u-2">
          <mxGeometry x="46.25" y="830" width="113.75" height="40" as="geometry" />
        </mxCell>
        <mxCell id="ogNk2Wb2_UPgN5I3dc7u-63" value="" style="edgeStyle=orthogonalEdgeStyle;rounded=0;orthogonalLoop=1;jettySize=auto;html=1;" edge="1" parent="ogNk2Wb2_UPgN5I3dc7u-2" source="ogNk2Wb2_UPgN5I3dc7u-44" target="ogNk2Wb2_UPgN5I3dc7u-62">
          <mxGeometry relative="1" as="geometry" />
        </mxCell>
        <mxCell id="ogNk2Wb2_UPgN5I3dc7u-66" value="si" style="edgeLabel;html=1;align=center;verticalAlign=middle;resizable=0;points=[];" vertex="1" connectable="0" parent="ogNk2Wb2_UPgN5I3dc7u-63">
          <mxGeometry x="0.0451" y="-2" relative="1" as="geometry">
            <mxPoint as="offset" />
          </mxGeometry>
        </mxCell>
        <mxCell id="ogNk2Wb2_UPgN5I3dc7u-70" value="Enviar correo de confirmación" style="rounded=1;whiteSpace=wrap;html=1;" vertex="1" parent="ogNk2Wb2_UPgN5I3dc7u-2">
          <mxGeometry x="49.68" y="980" width="106.88" height="40" as="geometry" />
        </mxCell>
        <mxCell id="ogNk2Wb2_UPgN5I3dc7u-75" value="Mostrar error" style="rounded=1;whiteSpace=wrap;html=1;" vertex="1" parent="ogNk2Wb2_UPgN5I3dc7u-2">
          <mxGeometry x="120" y="680" width="70" height="40" as="geometry" />
        </mxCell>
        <mxCell id="ogNk2Wb2_UPgN5I3dc7u-88" style="edgeStyle=orthogonalEdgeStyle;rounded=0;orthogonalLoop=1;jettySize=auto;html=1;entryX=0.5;entryY=0;entryDx=0;entryDy=0;" edge="1" parent="ogNk2Wb2_UPgN5I3dc7u-2" source="ogNk2Wb2_UPgN5I3dc7u-87" target="ogNk2Wb2_UPgN5I3dc7u-70">
          <mxGeometry relative="1" as="geometry" />
        </mxCell>
        <mxCell id="ogNk2Wb2_UPgN5I3dc7u-87" value="Generar etiqueta / tracking (courier)" style="rounded=1;whiteSpace=wrap;html=1;" vertex="1" parent="ogNk2Wb2_UPgN5I3dc7u-2">
          <mxGeometry x="48" y="900" width="112" height="50" as="geometry" />
        </mxCell>
        <mxCell id="ogNk2Wb2_UPgN5I3dc7u-4" value="Pasarela de pago" style="swimlane;whiteSpace=wrap;html=1;" vertex="1" parent="1">
          <mxGeometry x="470" y="90" width="200" height="1030" as="geometry" />
        </mxCell>
        <mxCell id="ogNk2Wb2_UPgN5I3dc7u-31" value="Crear token/ transacción" style="whiteSpace=wrap;html=1;rounded=1;" vertex="1" parent="ogNk2Wb2_UPgN5I3dc7u-4">
          <mxGeometry x="40" y="477" width="130" height="35" as="geometry" />
        </mxCell>
        <mxCell id="ogNk2Wb2_UPgN5I3dc7u-41" value="" style="edgeStyle=orthogonalEdgeStyle;rounded=0;orthogonalLoop=1;jettySize=auto;html=1;" edge="1" parent="ogNk2Wb2_UPgN5I3dc7u-4" source="ogNk2Wb2_UPgN5I3dc7u-37" target="ogNk2Wb2_UPgN5I3dc7u-40">
          <mxGeometry relative="1" as="geometry" />
        </mxCell>
        <mxCell id="ogNk2Wb2_UPgN5I3dc7u-48" value="si" style="edgeLabel;html=1;align=center;verticalAlign=middle;resizable=0;points=[];" vertex="1" connectable="0" parent="ogNk2Wb2_UPgN5I3dc7u-41">
          <mxGeometry x="-0.4207" y="1" relative="1" as="geometry">
            <mxPoint as="offset" />
          </mxGeometry>
        </mxCell>
        <mxCell id="ogNk2Wb2_UPgN5I3dc7u-37" value="¿Pago exitoso?" style="rhombus;whiteSpace=wrap;html=1;" vertex="1" parent="ogNk2Wb2_UPgN5I3dc7u-4">
          <mxGeometry x="40" y="610" width="137.5" height="70" as="geometry" />
        </mxCell>
        <mxCell id="ogNk2Wb2_UPgN5I3dc7u-40" value="Enviar confirmación" style="rounded=1;whiteSpace=wrap;html=1;" vertex="1" parent="ogNk2Wb2_UPgN5I3dc7u-4">
          <mxGeometry x="53.120000000000005" y="740" width="111.25" height="30" as="geometry" />
        </mxCell>
        <mxCell id="ogNk2Wb2_UPgN5I3dc7u-8" value="" style="edgeStyle=orthogonalEdgeStyle;rounded=0;orthogonalLoop=1;jettySize=auto;html=1;" edge="1" parent="1" source="ogNk2Wb2_UPgN5I3dc7u-5" target="ogNk2Wb2_UPgN5I3dc7u-7">
          <mxGeometry relative="1" as="geometry" />
        </mxCell>
        <mxCell id="ogNk2Wb2_UPgN5I3dc7u-16" value="" style="edgeStyle=orthogonalEdgeStyle;rounded=0;orthogonalLoop=1;jettySize=auto;html=1;" edge="1" parent="1" source="ogNk2Wb2_UPgN5I3dc7u-14" target="ogNk2Wb2_UPgN5I3dc7u-15">
          <mxGeometry relative="1" as="geometry" />
        </mxCell>
        <mxCell id="ogNk2Wb2_UPgN5I3dc7u-21" style="edgeStyle=orthogonalEdgeStyle;rounded=0;orthogonalLoop=1;jettySize=auto;html=1;entryX=0;entryY=0.5;entryDx=0;entryDy=0;" edge="1" parent="1" source="ogNk2Wb2_UPgN5I3dc7u-15" target="ogNk2Wb2_UPgN5I3dc7u-17">
          <mxGeometry relative="1" as="geometry">
            <Array as="points">
              <mxPoint x="170" y="400" />
            </Array>
          </mxGeometry>
        </mxCell>
        <mxCell id="ogNk2Wb2_UPgN5I3dc7u-32" value="" style="edgeStyle=orthogonalEdgeStyle;rounded=0;orthogonalLoop=1;jettySize=auto;html=1;" edge="1" parent="1" source="ogNk2Wb2_UPgN5I3dc7u-27" target="ogNk2Wb2_UPgN5I3dc7u-31">
          <mxGeometry relative="1" as="geometry" />
        </mxCell>
        <mxCell id="ogNk2Wb2_UPgN5I3dc7u-34" value="" style="edgeStyle=orthogonalEdgeStyle;rounded=0;orthogonalLoop=1;jettySize=auto;html=1;entryX=1;entryY=0.5;entryDx=0;entryDy=0;exitX=0.5;exitY=1;exitDx=0;exitDy=0;" edge="1" parent="1" source="ogNk2Wb2_UPgN5I3dc7u-31" target="ogNk2Wb2_UPgN5I3dc7u-33">
          <mxGeometry relative="1" as="geometry" />
        </mxCell>
        <mxCell id="ogNk2Wb2_UPgN5I3dc7u-36" value="" style="edgeStyle=orthogonalEdgeStyle;rounded=0;orthogonalLoop=1;jettySize=auto;html=1;exitX=0.5;exitY=1;exitDx=0;exitDy=0;entryX=0;entryY=0.5;entryDx=0;entryDy=0;" edge="1" parent="1" source="ogNk2Wb2_UPgN5I3dc7u-33" target="ogNk2Wb2_UPgN5I3dc7u-37">
          <mxGeometry relative="1" as="geometry">
            <mxPoint x="515" y="740" as="targetPoint" />
          </mxGeometry>
        </mxCell>
        <mxCell id="ogNk2Wb2_UPgN5I3dc7u-45" style="edgeStyle=orthogonalEdgeStyle;rounded=0;orthogonalLoop=1;jettySize=auto;html=1;entryX=0.945;entryY=0.5;entryDx=0;entryDy=0;entryPerimeter=0;" edge="1" parent="1" source="ogNk2Wb2_UPgN5I3dc7u-40" target="ogNk2Wb2_UPgN5I3dc7u-44">
          <mxGeometry relative="1" as="geometry" />
        </mxCell>
        <mxCell id="ogNk2Wb2_UPgN5I3dc7u-72" style="edgeStyle=orthogonalEdgeStyle;rounded=0;orthogonalLoop=1;jettySize=auto;html=1;entryX=0.5;entryY=1;entryDx=0;entryDy=0;" edge="1" parent="1" source="ogNk2Wb2_UPgN5I3dc7u-70" target="ogNk2Wb2_UPgN5I3dc7u-53">
          <mxGeometry relative="1" as="geometry" />
        </mxCell>
        <mxCell id="ogNk2Wb2_UPgN5I3dc7u-77" style="edgeStyle=orthogonalEdgeStyle;rounded=0;orthogonalLoop=1;jettySize=auto;html=1;" edge="1" parent="1" source="ogNk2Wb2_UPgN5I3dc7u-37" target="ogNk2Wb2_UPgN5I3dc7u-75">
          <mxGeometry relative="1" as="geometry">
            <Array as="points">
              <mxPoint x="470" y="760" />
              <mxPoint x="470" y="760" />
            </Array>
          </mxGeometry>
        </mxCell>
        <mxCell id="ogNk2Wb2_UPgN5I3dc7u-78" value="no" style="edgeLabel;html=1;align=center;verticalAlign=middle;resizable=0;points=[];" vertex="1" connectable="0" parent="ogNk2Wb2_UPgN5I3dc7u-77">
          <mxGeometry x="0.107" y="1" relative="1" as="geometry">
            <mxPoint as="offset" />
          </mxGeometry>
        </mxCell>
        <mxCell id="ogNk2Wb2_UPgN5I3dc7u-81" style="edgeStyle=orthogonalEdgeStyle;rounded=0;orthogonalLoop=1;jettySize=auto;html=1;entryX=1;entryY=0.5;entryDx=0;entryDy=0;" edge="1" parent="1" source="ogNk2Wb2_UPgN5I3dc7u-75" target="ogNk2Wb2_UPgN5I3dc7u-80">
          <mxGeometry relative="1" as="geometry" />
        </mxCell>
        <mxCell id="ogNk2Wb2_UPgN5I3dc7u-85" style="edgeStyle=orthogonalEdgeStyle;rounded=0;orthogonalLoop=1;jettySize=auto;html=1;entryX=0;entryY=0.5;entryDx=0;entryDy=0;" edge="1" parent="1" source="ogNk2Wb2_UPgN5I3dc7u-80" target="ogNk2Wb2_UPgN5I3dc7u-27">
          <mxGeometry relative="1" as="geometry">
            <Array as="points">
              <mxPoint x="261" y="770" />
              <mxPoint x="261" y="585" />
            </Array>
          </mxGeometry>
        </mxCell>
        <mxCell id="ogNk2Wb2_UPgN5I3dc7u-86" value="si" style="edgeLabel;html=1;align=center;verticalAlign=middle;resizable=0;points=[];" vertex="1" connectable="0" parent="ogNk2Wb2_UPgN5I3dc7u-85">
          <mxGeometry x="-0.6714" y="2" relative="1" as="geometry">
            <mxPoint as="offset" />
          </mxGeometry>
        </mxCell>
      </root>
    </mxGraphModel>
  </diagram>
</mxfile>
